<svg id="Layer_1" data-name="Layer 1" xmlns="http://www.w3.org/2000/svg" xmlns:xlink="http://www.w3.org/1999/xlink" viewBox="0 0 687.65 390.12"><defs><style>.cls-1{fill:#003c09;}.cls-2{fill:#158909;stroke:#020202;stroke-miterlimit:10;stroke-width:15px;}.cls-3{fill:url(#radial-gradient);}.cls-4{fill:url(#radial-gradient-2);}.cls-5{fill:url(#radial-gradient-3);}.cls-6{fill:url(#radial-gradient-4);}.cls-7{fill:url(#radial-gradient-5);}.cls-8{fill:url(#radial-gradient-6);}</style><radialGradient id="radial-gradient" cx="430.93" cy="200.17" r="95.01" gradientTransform="translate(644.11 216.08) scale(0.71 1)" gradientUnits="userSpaceOnUse"><stop offset="0" stop-color="#fcfcfc"/><stop offset="0.4" stop-color="red"/></radialGradient><radialGradient id="radial-gradient-2" cx="933.9" cy="589.43" r="95.01" gradientTransform="matrix(0.87, -0.36, 0.5, 0.62, -554.91, 293.89)" xlink:href="#radial-gradient"/><radialGradient id="radial-gradient-3" cx="548.58" cy="63.98" r="94.48" gradientTransform="matrix(1, 0, 0, 1, 0, 0)" xlink:href="#radial-gradient"/><radialGradient id="radial-gradient-4" cx="430.86" cy="991.26" r="95.01" gradientTransform="matrix(0.71, 0, 0, -1, 13.6, 1407.45)" xlink:href="#radial-gradient"/><radialGradient id="radial-gradient-5" cx="248.83" cy="193.82" r="95.01" gradientTransform="matrix(-0.87, -0.36, -0.5, 0.62, 450.54, 293.89)" xlink:href="#radial-gradient"/><radialGradient id="radial-gradient-6" cx="-420.05" cy="652.62" r="95.01" gradientTransform="matrix(-0.87, 0.36, 0.5, 0.62, -551.95, -189.25)" xlink:href="#radial-gradient"/></defs><title>Hans och Greta 2</title><rect class="cls-1" width="687.65" height="390.12"/><rect class="cls-2" x="146.11" y="124.69" width="402.47" height="139.51"/><path d="M486.93,370h8l-2.32,2.27v7.38a8.56,8.56,0,0,0,.92.1v-7.31l1.86-1.85.34.31L494,372.67v7.13l.56.05q1.32.12,2.55.12a23.5,23.5,0,0,0,3.06-.17v-7.86L498.09,370H506l-2.36,2.27V390.1l2.07,1.85h-7.86l2.34-2V382.7a12.72,12.72,0,0,1-3,.34q-1.44,0-3-.15l-.24,0v7.23l2.82,3.25H488l-.44-.46h8.34l-2.32-2.55v-7.86l.5,0q2.26.17,3.26.17a8.3,8.3,0,0,0,2.85-.44v-.62a25.7,25.7,0,0,1-3.74.24q-1.15,0-1.67-.05l-1.73-.15-.39,0v8.48l2.19,1.85h-7.9l2.29-2v-7.47a2.73,2.73,0,0,0-2.29,1.13l-.36-.17a3.61,3.61,0,0,1,2.65-1.38v-.63a3.6,3.6,0,0,0-3,1.45l-.26-.17a4.38,4.38,0,0,1,3.28-2.91V372.1Zm19.77,1L505,372.67V390.1l2.84,3.25h-8.87l-.43-.46h8.32l-2.29-2.58V372.5l1.9-1.88Z" transform="translate(-292.65 -221.85)"/><path d="M524.32,370l-1.78,2,2.8,7.45.68-.38-2.53-6.73,1.81-2.08.44.19-1.73,2,2.39,6.37.24-.19.56-.48a4.87,4.87,0,0,0,.65-.58,11.84,11.84,0,0,0,1.37,3.49l-.72,0a4.3,4.3,0,0,0-2.37.51l3.09,8.39,2.56,2h-8.63l2.36-2-1.9-5a18.93,18.93,0,0,0-2.89,3.61l-.39-.1a21.77,21.77,0,0,1,3-3.74l.14-.17-.32-.75a15.19,15.19,0,0,0-3.37,3.93l-.31-.5q-.89-1.42-2.27-3.23l-.17-.21a12.31,12.31,0,0,0-1.32,4.75,4.07,4.07,0,0,0,.37,1.82,16.72,16.72,0,0,0,1.77,2.49l.38.48H509l-.34-.46h8.7l-.29-.36a11.11,11.11,0,0,1-1.48-2.13,4.23,4.23,0,0,1-.35-1.79,15.35,15.35,0,0,1,1.42-5.2l-.75-.79q-.22.55-.56,1.61L514.8,386a7.75,7.75,0,0,0-.46,2.32,3.46,3.46,0,0,0,.33,1.59,8.47,8.47,0,0,0,1.37,1.73l.31.32H507.8a10.18,10.18,0,0,0,3.87-3.4,27,27,0,0,0,2.83-6.6l.07-.24a4.69,4.69,0,0,0-2.62-.94,12.25,12.25,0,0,0,1.45-2.92l.29.27.77.72a8.66,8.66,0,0,0,.94.77l.31-.75-.21-.17q-.85-.75-1.44-1.21l-.15-.12.27-.38a13.15,13.15,0,0,1,1.74,1.38l2.32-6.39L516.44,370Zm-5,3.5-2.72,7.18a23.87,23.87,0,0,1,2.24,2.63l.79,1.09.17.22a1.38,1.38,0,0,0,.17-.19l.24-.29.19-.22a17.82,17.82,0,0,0-2.79-3.33l2.19-5.78Zm.77,2-1.88,5,.17.21.7.79a17.08,17.08,0,0,1,1.44,1.91l.17.26a15.29,15.29,0,0,1,1.74-1.83Zm9.28,2.92a18.48,18.48,0,0,0,1.88,4.22l-.43-.05-1.38-.12q-.94-.08-1.37-.09l-.34,0,2.85,7.57,3.81,3.37h-9.89l-.33-.46h9.08l-3.08-2.72-3-8a5.22,5.22,0,0,1,1.33-.15,15.29,15.29,0,0,1,2.05.15l-.21-.38a14.79,14.79,0,0,1-1.47-3.64Z" transform="translate(-292.65 -221.85)"/><path d="M554.49,370a7,7,0,0,0-2.51,1.85,7.2,7.2,0,0,0-.85,3.91v16.17h-2.89l-8.07-15.65v9.28l0,.77.21,2.46a3.79,3.79,0,0,0,1.56,2.53l.14.12q-2.36-.79-2.36-5l0-1.61v-9.35l-.92-1.79v9.84q0,4.68.62,6.14a4.12,4.12,0,0,0,2.89,2.12l1.49,1.59h-9.26l-.27-.46h8.56l-.89-.94h-8a4.82,4.82,0,0,0,2.77-2,9.86,9.86,0,0,0,.68-4.34V371.91l-2.27-1.9h8.65l-2.43,1.62,8.27,16.13v-2.05l-7.09-13.81,2.39-1.62.32.32-2.12,1.44,6.49,12.75v-8.89a10.57,10.57,0,0,0-.49-4,5,5,0,0,0-2.4-1.92Zm.6,1.26-.31.51a2.59,2.59,0,0,0-1.79,1.14,6,6,0,0,0-.47,2.79v17.62h-3.67l-.22-.46h3.44v-17a6.48,6.48,0,0,1,.62-3.36A3.41,3.41,0,0,1,555.08,371.28Z" transform="translate(-292.65 -221.85)"/><path d="M572.05,370.21a11.41,11.41,0,0,0-1.42,2.5,34.25,34.25,0,0,1-1.38,3.14l-.09.1-.1-.29a15.17,15.17,0,0,0-.79-2.14,4,4,0,0,0-.92-1.15,5.17,5.17,0,0,0-3.54-1.38,4.58,4.58,0,0,0-3,1,3.2,3.2,0,0,0-1.21,2.56q0,2.87,4.32,3.91l2.89.7q6.17,1.49,6.17,6.51a6.09,6.09,0,0,1-2.11,4.71,7.51,7.51,0,0,1-5.22,1.91,18.25,18.25,0,0,1-4.36-.6l-2-.5a9,9,0,0,0-2-.29,4.18,4.18,0,0,0-2.15.67l-.14-.24a23,23,0,0,0,3-6.08l.31.09a6.25,6.25,0,0,0,2.15,4.17,7.13,7.13,0,0,0,4.7,1.49,5.74,5.74,0,0,0,3.64-1.06,3.44,3.44,0,0,0,1.35-2.85,4.06,4.06,0,0,0-1.88-3.42,16.22,16.22,0,0,0-5.54-1.78,8.88,8.88,0,0,1-4.68-2.1,6.17,6.17,0,0,1,.49-8.47,7.43,7.43,0,0,1,5-1.68,18.28,18.28,0,0,1,4.67.72,7.82,7.82,0,0,0,1.85.34,3.67,3.67,0,0,0,1.83-.58Zm0,10.9a5.72,5.72,0,0,1,2.32,4.82,7.14,7.14,0,0,1-2.53,5.53,8.89,8.89,0,0,1-6.15,2.26,13.62,13.62,0,0,1-3.33-.38l-2.73-.67a8.45,8.45,0,0,0-2.05-.24,4.1,4.1,0,0,0-1.79.39l-.21-.5a4.28,4.28,0,0,1,1.81-.41,10.41,10.41,0,0,1,2.34.31l2.63.63a14.2,14.2,0,0,0,3.32.38,8.35,8.35,0,0,0,5.82-2.18,6.87,6.87,0,0,0,2.4-5.27,6.48,6.48,0,0,0-1.85-4.58Zm-14.3-.62.58.32q.56,1,3.3,1.67l2.75.68a18.9,18.9,0,0,1,3.73,1.2,2.83,2.83,0,0,1,1.32,1.53l-.12.07a4.94,4.94,0,0,0-1.67-1.3,21.67,21.67,0,0,0-3.44-1,26.76,26.76,0,0,1-5-1.48A2.53,2.53,0,0,1,557.75,380.49Zm2.14,5.54a5.83,5.83,0,0,0,3.38,4.36v.14a5.23,5.23,0,0,1-3.85-4.41Zm8.24-11.71a5.51,5.51,0,0,0-4-2,3.14,3.14,0,0,0-2.15.75,2.44,2.44,0,0,0-.85,1.91,3.57,3.57,0,0,0,1.73,2.6l.14.09-.08.14q-2.26-1-2.26-2.92a2.75,2.75,0,0,1,1-2.17,3.65,3.65,0,0,1,2.5-.84,5.14,5.14,0,0,1,2.57.62,3.76,3.76,0,0,1,1.61,1.75Zm5-3.4-.15.26a24.47,24.47,0,0,0-1.2,2.26q-1.2,2.51-1.35,2.8l-.09.12-.41-.17L570,376q.5-1.13,1.44-2.94l1.16-2.26.09-.14Z" transform="translate(-292.65 -221.85)"/><path d="M593.76,369.79a8,8,0,0,1,6.64,3.14,13.18,13.18,0,0,1,2.49,8.41,12,12,0,0,1-2.45,7.93,8.12,8.12,0,0,1-6.59,3,8.92,8.92,0,0,1-5.81-2.08q-3.74-3.08-3.74-9.11a12.32,12.32,0,0,1,2.56-8.2A8.56,8.56,0,0,1,593.76,369.79Zm0,1.47q-5.78,0-5.78,10.15,0,9.38,5.69,9.38a4.38,4.38,0,0,0,4-2.49q1.38-2.49,1.38-7.27,0-5.42-1.33-7.55A4.46,4.46,0,0,0,593.76,371.26Zm5.45-.6a8.43,8.43,0,0,1,3.86,4,14.64,14.64,0,0,1,1.42,6.6,13.51,13.51,0,0,1-2.79,8.89,9.06,9.06,0,0,1-7.34,3.38,8.69,8.69,0,0,1-5.43-2v-.09a8.74,8.74,0,0,0,5.32,1.56,8.84,8.84,0,0,0,7-3.23,12.29,12.29,0,0,0,2.75-8.25,15.87,15.87,0,0,0-1.26-6.55,9,9,0,0,0-3.56-4.19Zm-1.79,3.16-.29-.17a6.32,6.32,0,0,0-3-.91q-4.49,0-4.49,8.84,0,6.46,2.79,8.56l-.15.17a6.63,6.63,0,0,1-2.44-3.19,15.9,15.9,0,0,1-.73-5.34q0-9.48,5-9.48A3.78,3.78,0,0,1,597.42,373.83Z" transform="translate(-292.65 -221.85)"/><path d="M624,370.55l-.19.32a49,49,0,0,0-2.67,5.37l-.15.39-.22-.12a7.45,7.45,0,0,0-1.83-4.12,4.6,4.6,0,0,0-3.47-1.52,4.4,4.4,0,0,0-3.62,1.9q-1.83,2.36-1.83,8a14.55,14.55,0,0,0,1.68,7.6,5.22,5.22,0,0,0,4.67,2.75,4.87,4.87,0,0,0,3.82-1.6,7.76,7.76,0,0,0,1.7-4.57q.07-.72.58-.72.67,0,.67,1.11a8.8,8.8,0,0,1-.75,3.44q-1.59,3.76-6.56,3.76a8.73,8.73,0,0,1-7.06-3.12q-2.61-3.12-2.61-8.43a12.54,12.54,0,0,1,2.72-8.22,8.4,8.4,0,0,1,6.75-3.32,12.34,12.34,0,0,1,4.36.94,6.16,6.16,0,0,0,2.12.5,2.79,2.79,0,0,0,1.62-.5Zm.62,14.7a10,10,0,0,1-2.37,6.45,7.67,7.67,0,0,1-5.85,2.21,9,9,0,0,1-5.31-1.76V392a9.41,9.41,0,0,0,5.28,1.44,7.41,7.41,0,0,0,5.52-2.17,6.78,6.78,0,0,0,1.54-2.38,13.07,13.07,0,0,0,.67-3.49l0-.39ZM619,373.5a4.81,4.81,0,0,0-2.94-1.25q-4.43,0-4.43,8.44a17.29,17.29,0,0,0,1,6.4,5.49,5.49,0,0,0,2.89,3.31v.17q-2-.41-3.22-3.1a16.73,16.73,0,0,1-1.21-6.81q0-8.84,4.85-8.84a4.13,4.13,0,0,1,3,1.45Zm6.2-2.14-.19.32a51.26,51.26,0,0,0-3,5.79l-.46-.22.19-.43q.85-1.79,1.5-3l1.37-2.43.17-.31Z" transform="translate(-292.65 -221.85)"/><path d="M626.79,370h8l-2.32,2.27v7.38a8.56,8.56,0,0,0,.92.1v-7.31l1.86-1.85.34.31-1.76,1.74v7.13l.56.05q1.32.12,2.55.12a23.5,23.5,0,0,0,3.06-.17v-7.86L638,370h7.9l-2.36,2.27V390.1l2.07,1.85H637.7l2.34-2V382.7a12.72,12.72,0,0,1-3,.34q-1.44,0-3-.15l-.24,0v7.23l2.82,3.25h-8.84l-.44-.46h8.34l-2.32-2.55v-7.86l.5,0q2.26.17,3.26.17a8.3,8.3,0,0,0,2.85-.44v-.62a25.7,25.7,0,0,1-3.74.24q-1.15,0-1.67-.05l-1.73-.15-.39,0v8.48l2.19,1.85h-7.9l2.29-2v-7.47a2.73,2.73,0,0,0-2.29,1.13l-.36-.17a3.61,3.61,0,0,1,2.65-1.38v-.63a3.6,3.6,0,0,0-3,1.45l-.26-.17a4.38,4.38,0,0,1,3.28-2.91V372.1Zm19.77,1-1.74,1.69V390.1l2.84,3.25h-8.87l-.43-.46h8.32l-2.29-2.58V372.5l1.9-1.88Z" transform="translate(-292.65 -221.85)"/><path d="M676.44,370.62l-3.2,6.29a6.84,6.84,0,0,0-1.68-4.1,4.83,4.83,0,0,0-3.63-1.42,5.8,5.8,0,0,0-5,2.5,11.85,11.85,0,0,0-1.79,7q0,9.9,8.1,9.9H672v-8.87h-4.31a9.14,9.14,0,0,1-2-.15,2.76,2.76,0,0,1-1.17-.67v-.43a3.34,3.34,0,0,0,1.23.61,9.7,9.7,0,0,0,2,.15H672v-.92h-5.52q-2.55,0-2.55-1.85a1.86,1.86,0,0,1,.43-1.23,1.29,1.29,0,0,1,1-.51,1.08,1.08,0,0,1,.78.32,1,1,0,0,1,.33.77q0,.75-.55.87l-.41.09q-.21.05-.21.17t.56.22h11.86l-2.36,2.31v8.43l2.19,1.88H667.12a10.36,10.36,0,0,1-3.59-.53,8.86,8.86,0,0,1-2.87-1.88,10.87,10.87,0,0,1-3.43-8.43q0-5.45,3.25-8.51a9.47,9.47,0,0,1,6.73-2.68,15.42,15.42,0,0,1,4,.62,15,15,0,0,0,3,.63A4.93,4.93,0,0,0,676.44,370.62ZM672,374.29l-.31-.22a6.32,6.32,0,0,0-3.55-1.38,4.66,4.66,0,0,0-3.37,1.38,5.9,5.9,0,0,0-1.48,2.68,17.09,17.09,0,0,0-.45,4.38,15.77,15.77,0,0,0,.68,5.28,7.73,7.73,0,0,0,2.51,3.3v.19a6.7,6.7,0,0,1-2.85-3.32,15.82,15.82,0,0,1-.87-5.82,11.14,11.14,0,0,1,1.52-6.3,4.87,4.87,0,0,1,4.27-2.25,4.68,4.68,0,0,1,3.9,2Zm6.49,6-1.76,1.76v8l2.84,3.26-6.78-.05-6.15.07a8.74,8.74,0,0,1-.89,0,4.46,4.46,0,0,1-2.17-.94h.36a8,8,0,0,0,3.18.51l.85,0h10.65l-2.36-2.61v-8.37l2-2Zm-1-8.61-2.92,5.74-.41-.19,2.94-5.76Z" transform="translate(-292.65 -221.85)"/><path d="M681.77,372.07a17.13,17.13,0,0,1,8.72-2.34,10.53,10.53,0,0,1,6,1.57,4.67,4.67,0,0,1,2.35,4,4.81,4.81,0,0,1-1.54,3.51,9,9,0,0,1-4.2,2.21,30.27,30.27,0,0,0,3.21,6.32,20.47,20.47,0,0,0,4.06,4.72l-.26.09a22.54,22.54,0,0,0-5,2.46l-.26.17-.09-.55A49.18,49.18,0,0,0,691.68,383l-.07-.17a12.48,12.48,0,0,1-3.16.87l-.14,0v6.39l3,3.21h-8.83l-.27-.46h8.13l-2.48-2.63v-6.89l.36-.05a11.36,11.36,0,0,0,3.26-.77,2.67,2.67,0,0,1-.12-.26l-.17-.5-.09-.21a30.13,30.13,0,0,1-4,.67l-.19,0v7.62l1.95,2h-7.55l2.22-2v-5.74l-.14,0a17.49,17.49,0,0,0-1.79.5l-.14.05-.15-.34a10,10,0,0,1,1.18-.39l.91-.22.14,0v-.89a9.21,9.21,0,0,0-2.51.44l-.19.07a8.16,8.16,0,0,1,.34-1.11s.1-.3.24-.77l.05-.15q.77.05,1.2.05a6.62,6.62,0,0,0,.85-.05v-8.41a10.31,10.31,0,0,0-1.62-.8Zm5.16-.44v9.21a5,5,0,0,0,.94-.09v-8.41a8.66,8.66,0,0,1,2.26-.26q3.33,0,4.53,2.19a9.16,9.16,0,0,0-2.22-1.41,6.15,6.15,0,0,0-2.29-.38,7.29,7.29,0,0,0-1.83.21v8.07l.19,0a11.14,11.14,0,0,0,5-1.94,4.23,4.23,0,0,0,1.63-3.44,3.93,3.93,0,0,0-1.47-3.14A5.56,5.56,0,0,0,690,371,6.28,6.28,0,0,0,686.93,371.62Zm8.25,10.25a20.46,20.46,0,0,0,3.81,6.89,18,18,0,0,0,4.32,3.78,27,27,0,0,0-7.35,3.18l-.15.1-.34-.27a24.35,24.35,0,0,1,7-3.14q-4.92-3.28-7.74-10.49l-.1-.29q5.23-2,5.23-6a6.64,6.64,0,0,0-1.35-3.66,5.17,5.17,0,0,1,1.73,4Q700.19,379.84,695.19,381.88Z" transform="translate(-292.65 -221.85)"/><path d="M721.73,370l-.27.32a17.06,17.06,0,0,0-2.77,4.9l-.26-.58a5.59,5.59,0,0,0-2-2.65,8.7,8.7,0,0,0-3.86-.6q-1.28,0-3.08.09v7.86h1.09v-7q1.3-.12,2.48-.12a8.26,8.26,0,0,1,3.2.46,4.29,4.29,0,0,1,1.83,1.79l-.34-.26a8.27,8.27,0,0,0-2-1.3,9.2,9.2,0,0,0-2.43-.21q-.55,0-1.95.07l-.36,0v6.49h3.14l2.2-3v7.37l-2.2-2.85h-4.67v9.59h1.09v-8.78h3.71l.44.44H711v8.34a17.28,17.28,0,0,0,5-.5,4.14,4.14,0,0,0,2.31-1.95l.91-1.56.21-.38a11.11,11.11,0,0,0,1.1,3,13.55,13.55,0,0,0,2.18,2.63H703.49l2.6-2V382.1a6.3,6.3,0,0,0-2.6.89l-.24-.36a6.09,6.09,0,0,1,2.84-1v-.8l-.41,0a4.66,4.66,0,0,0-3.18,1.28,3.42,3.42,0,0,1,3.59-2.73v-7.3l-2.6-2.05Zm2.87,21.79-.89,1.54H705l-.27-.46h18.71l.58-1.08A13.21,13.21,0,0,1,720.6,387l.55.21a14,14,0,0,0,3.18,4.38Zm-7.08-14.9v7.55l-.43-.22v-7.55Zm5-5.69-.12.15a20.19,20.19,0,0,0-2.79,4.7l-.29-.36a20.28,20.28,0,0,1,3-4.85Z" transform="translate(-292.65 -221.85)"/><path d="M744,370l-.21.39-1.16,2.05a15.18,15.18,0,0,0-1.11,2.73l0,.09-.17-.12-.05-.22a5,5,0,0,0-1.41-2.7,4.34,4.34,0,0,0-2.79-.75q-.77,0-1.54.07h-.21v18.53l2,1.86h-7.81l2.39-2v-17l-1.21,0a2.82,2.82,0,0,0-3.38,3.13h-.44a4.28,4.28,0,0,1,1-2.79,4,4,0,0,1,2.79-.79l1,0h.19v-.84a14.21,14.21,0,0,0-1.66-.1,4.62,4.62,0,0,0-3.18.9,4.28,4.28,0,0,0-1.08,3h-.21a31.73,31.73,0,0,0-2.27-5.3l-.1-.17Zm-3.49,3.74a5.53,5.53,0,0,0-3.08-.85,6.87,6.87,0,0,0-.82.05l.07,17.18,2.72,3.21h-8.73l-.39-.46h8.19l-2.29-2.61V372.46l.92,0a7.28,7.28,0,0,1,2.35.27A2,2,0,0,1,740.53,373.76Zm4.56-2.67a19.59,19.59,0,0,0-2.48,5l-.07.17-.38-.32.05-.15a16.7,16.7,0,0,1,2.44-4.92l.08-.1Z" transform="translate(-292.65 -221.85)"/><path d="M761,370l-1.78,2,2.8,7.45.68-.38-2.53-6.73,1.81-2.08.44.19-1.73,2,2.39,6.37.24-.19.56-.48a4.94,4.94,0,0,0,.65-.58,11.84,11.84,0,0,0,1.37,3.49l-.72,0a4.3,4.3,0,0,0-2.38.51L766,390l2.56,2h-8.63l2.36-2-1.9-5a18.9,18.9,0,0,0-2.89,3.61l-.39-.1a21.77,21.77,0,0,1,3-3.74l.14-.17-.33-.75a15.2,15.2,0,0,0-3.37,3.93l-.31-.5q-.89-1.42-2.27-3.23l-.17-.21a12.33,12.33,0,0,0-1.32,4.75,4.08,4.08,0,0,0,.37,1.82,16.8,16.8,0,0,0,1.77,2.49l.38.48h-9.23l-.34-.46h8.7l-.29-.36a11.11,11.11,0,0,1-1.48-2.13,4.23,4.23,0,0,1-.35-1.79,15.37,15.37,0,0,1,1.42-5.2l-.75-.79q-.22.55-.56,1.61l-.56,1.74a7.75,7.75,0,0,0-.46,2.32,3.46,3.46,0,0,0,.32,1.59,8.51,8.51,0,0,0,1.37,1.73l.31.32h-8.54a10.17,10.17,0,0,0,3.87-3.4,27,27,0,0,0,2.83-6.6l.07-.24a4.69,4.69,0,0,0-2.61-.94,12.29,12.29,0,0,0,1.45-2.92l.29.27.77.72a8.58,8.58,0,0,0,.94.77l.31-.75-.21-.17q-.86-.75-1.44-1.21l-.15-.12.27-.38a13.15,13.15,0,0,1,1.74,1.38L755,372,753.15,370Zm-5,3.5-2.72,7.18a23.78,23.78,0,0,1,2.24,2.63l.79,1.09.17.22a1.38,1.38,0,0,0,.17-.19l.24-.29.19-.22a17.82,17.82,0,0,0-2.79-3.33l2.19-5.78Zm.77,2-1.88,5,.17.21.7.79a17.08,17.08,0,0,1,1.44,1.91l.17.26a15.14,15.14,0,0,1,1.74-1.83Zm9.28,2.92a18.44,18.44,0,0,0,1.88,4.22l-.43-.05-1.38-.12q-.94-.08-1.37-.09l-.34,0L767.3,390l3.81,3.37h-9.9l-.32-.46H770l-3.08-2.72-3-8a5.23,5.23,0,0,1,1.33-.15,15.29,15.29,0,0,1,2.05.15l-.21-.38a14.83,14.83,0,0,1-1.47-3.64Z" transform="translate(-292.65 -221.85)"/><path d="M495.41,412h8L501,414.27V424.6l.94-1.08v-9.11l1.91-1.86.26.38-1.76,1.71V423l5.3-6.32a4,4,0,0,0,1.15-2.46,1.69,1.69,0,0,0-.65-1.24,3.26,3.26,0,0,0-1.57-.78V412h9v.17q-3,.72-6.37,4.82l-2.38,2.82,6.31,12.25,2.87,1.86h-8.87l2.24-1.67-4.24-8.48-2.79,3.4v4.89l2.79,3.26H496.4l-.46-.46h8.2L502,432.27V427l3-3.66-.38-.75-3.54,4.2v5.31l2.07,1.86h-7.83l2.34-2V414.05Zm21.05,1.56q-2.53.17-5,3l-3,3.32,6,12.24,4.84,3.26H508.43l-.48-.46h9.9l-3.64-2.48-6.25-12.56,3.18-3.59a8.13,8.13,0,0,1,5.14-3Z" transform="translate(-292.65 -221.85)"/><path d="M519,412h8.17l-2.41,2.34v18.27h.14l.62.05h.15V414.53l1.85-1.86.24.38L526,414.73v17.94q.77.07,1.47.07a6.12,6.12,0,0,0,4.11-1.21,6.57,6.57,0,0,0,1.87-4q1.61,4.67,3.3,6.37H519l2.36-1.93V414.19Zm19.52,21.79-.77,1.54H519.86l-.43-.46h18.08l.5-1.08a19.46,19.46,0,0,1-3-5.14l-.07-.19.55.21.12.29a25.19,25.19,0,0,0,2.73,4.67Z" transform="translate(-292.65 -221.85)"/><path d="M538.11,412h8.1l-2.29,2.32v17.79l2.15,1.81h-8l2.38-2V414.15Zm8.87,1-1.74,1.73v17.41l2.87,3.21h-8.89l-.43-.46h8.31l-2.34-2.58V414.56l1.93-1.91Z" transform="translate(-292.65 -221.85)"/><path d="M571.63,406.62l.19.19a20.85,20.85,0,0,0-3.66,4.61,56.91,56.91,0,0,0-3.4,7.69l-5,13.06,2,1.78h-7.88l2.26-1.86-6.25-17.81L547.29,412h8.48l-2.41,2.41,5.64,16,.67-1.59-5-14.22,1.74-1.73.31.32-1.52,1.5,4.73,13.52,3.62-9.67a20.7,20.7,0,0,0,1.62-6,4,4,0,0,0-1.28-3l.32-.07A17.45,17.45,0,0,0,571.63,406.62Zm.92,1,.15.39q-3.27,2.55-6.73,11.62l-4.82,12.56,2.67,3.11H555l-.38-.46h8.19l-2.15-2.53,4.91-12.8.92-2.43a32.5,32.5,0,0,1,2.91-5.75A14.29,14.29,0,0,1,572.55,407.66Z" transform="translate(-292.65 -221.85)"/><path d="M579.25,412h8.1l-2.29,2.32v17.79l2.15,1.81h-8l2.38-2V414.15Zm8.87,1-1.74,1.73v17.41l2.87,3.21h-8.89l-.43-.46h8.31l-2.34-2.58V414.56l1.93-1.91Z" transform="translate(-292.65 -221.85)"/><path d="M609.45,412a7,7,0,0,0-2.51,1.85,7.2,7.2,0,0,0-.85,3.91v16.17h-2.89l-8.07-15.65v9.28l0,.77.21,2.46a3.79,3.79,0,0,0,1.56,2.53l.14.12q-2.36-.79-2.36-5l0-1.61v-9.35l-.92-1.79v9.84q0,4.68.62,6.14a4.12,4.12,0,0,0,2.89,2.12l1.49,1.59h-9.26l-.27-.46h8.56l-.89-.94h-8a4.82,4.82,0,0,0,2.77-2,9.86,9.86,0,0,0,.68-4.34V413.91l-2.27-1.9h8.65l-2.43,1.62,8.27,16.13v-2.05l-7.09-13.81,2.39-1.62.32.32-2.12,1.44,6.49,12.75v-8.89a10.57,10.57,0,0,0-.49-4,5,5,0,0,0-2.4-1.92Zm.6,1.26-.31.51a2.59,2.59,0,0,0-1.79,1.14,6,6,0,0,0-.47,2.79v17.62h-3.67l-.22-.46H607v-17a6.48,6.48,0,0,1,.62-3.36A3.41,3.41,0,0,1,610,413.28Z" transform="translate(-292.65 -221.85)"/><path d="M619.72,412h8.1l-2.29,2.32v17.79l2.15,1.81h-8l2.38-2V414.15Zm8.87,1-1.74,1.73v17.41l2.87,3.21h-8.89l-.43-.46h8.31l-2.34-2.58V414.56l1.93-1.91Z" transform="translate(-292.65 -221.85)"/><path d="M655.21,412.21a11.41,11.41,0,0,0-1.42,2.5,34.25,34.25,0,0,1-1.38,3.14l-.09.1-.1-.29a15.17,15.17,0,0,0-.79-2.14,4,4,0,0,0-.92-1.15A5.17,5.17,0,0,0,647,413a4.58,4.58,0,0,0-3,1,3.2,3.2,0,0,0-1.21,2.56q0,2.87,4.32,3.91l2.89.7q6.17,1.49,6.17,6.51A6.09,6.09,0,0,1,654,432.4a7.51,7.51,0,0,1-5.22,1.91,18.25,18.25,0,0,1-4.36-.6l-2-.5a9,9,0,0,0-2-.29,4.18,4.18,0,0,0-2.15.67l-.14-.24a23,23,0,0,0,3-6.08l.31.09a6.25,6.25,0,0,0,2.15,4.17,7.13,7.13,0,0,0,4.7,1.49,5.74,5.74,0,0,0,3.64-1.06,3.44,3.44,0,0,0,1.35-2.85,4.06,4.06,0,0,0-1.88-3.42,16.22,16.22,0,0,0-5.54-1.78,8.88,8.88,0,0,1-4.68-2.1,6.17,6.17,0,0,1,.49-8.47,7.43,7.43,0,0,1,5-1.68,18.28,18.28,0,0,1,4.67.72,7.82,7.82,0,0,0,1.85.34,3.67,3.67,0,0,0,1.83-.58Zm0,10.9a5.72,5.72,0,0,1,2.32,4.82,7.14,7.14,0,0,1-2.53,5.53,8.89,8.89,0,0,1-6.15,2.26,13.62,13.62,0,0,1-3.33-.38l-2.73-.67a8.45,8.45,0,0,0-2.05-.24,4.1,4.1,0,0,0-1.79.39l-.21-.5a4.28,4.28,0,0,1,1.81-.41,10.41,10.41,0,0,1,2.34.31l2.63.63a14.2,14.2,0,0,0,3.32.38,8.35,8.35,0,0,0,5.82-2.18,6.87,6.87,0,0,0,2.4-5.27,6.48,6.48,0,0,0-1.85-4.58Zm-14.3-.62.58.32q.56,1,3.3,1.67l2.75.68a18.9,18.9,0,0,1,3.73,1.2,2.83,2.83,0,0,1,1.32,1.53l-.12.07a4.94,4.94,0,0,0-1.67-1.3,21.67,21.67,0,0,0-3.44-1,26.76,26.76,0,0,1-5-1.48A2.53,2.53,0,0,1,640.91,422.49ZM643,428a5.83,5.83,0,0,0,3.38,4.36v.14a5.23,5.23,0,0,1-3.85-4.41Zm8.24-11.71a5.51,5.51,0,0,0-4-2,3.14,3.14,0,0,0-2.15.75,2.44,2.44,0,0,0-.85,1.91,3.57,3.57,0,0,0,1.73,2.6l.14.09-.08.14q-2.26-1-2.26-2.92a2.75,2.75,0,0,1,1-2.17,3.65,3.65,0,0,1,2.5-.84,5.14,5.14,0,0,1,2.57.62,3.76,3.76,0,0,1,1.61,1.75Zm5-3.4-.15.26a24.47,24.47,0,0,0-1.2,2.26q-1.2,2.51-1.35,2.8l-.09.12-.41-.17.07-.15q.5-1.13,1.44-2.94l1.16-2.26.09-.14Z" transform="translate(-292.65 -221.85)"/><path d="M658.72,412h8l-2.37,2.26V424.6l.94-1.08v-9.11l1.91-1.86.26.38-1.76,1.71V423l5.3-6.32a4,4,0,0,0,1.15-2.46,1.69,1.69,0,0,0-.65-1.24,3.26,3.26,0,0,0-1.57-.78V412h9v.17q-3,.72-6.37,4.82l-2.38,2.82,6.31,12.25,2.87,1.86h-8.87l2.24-1.67-4.24-8.48-2.79,3.4v4.89l2.79,3.26h-8.77l-.46-.46h8.2l-2.17-2.61V427l3-3.66-.38-.75-3.54,4.2v5.31l2.07,1.86h-7.83l2.34-2V414.05Zm21.05,1.56q-2.53.17-5,3l-3,3.32,6,12.24,4.84,3.26H671.74l-.48-.46h9.9l-3.64-2.48-6.25-12.56,3.18-3.59a8.13,8.13,0,0,1,5.14-3Z" transform="translate(-292.65 -221.85)"/><path d="M691.85,411.79a8,8,0,0,1,6.64,3.14,13.18,13.18,0,0,1,2.49,8.41,12,12,0,0,1-2.45,7.93,8.12,8.12,0,0,1-6.59,3,8.92,8.92,0,0,1-5.81-2.08q-3.74-3.08-3.74-9.11a12.32,12.32,0,0,1,2.56-8.2A8.56,8.56,0,0,1,691.85,411.79Zm0,1.47q-5.78,0-5.78,10.15,0,9.38,5.69,9.38a4.38,4.38,0,0,0,4-2.49q1.38-2.49,1.38-7.27,0-5.42-1.33-7.55A4.46,4.46,0,0,0,691.85,413.26Zm5.45-.6a8.43,8.43,0,0,1,3.86,4,14.64,14.64,0,0,1,1.42,6.6,13.51,13.51,0,0,1-2.79,8.89,9.06,9.06,0,0,1-7.34,3.38,8.69,8.69,0,0,1-5.43-2v-.09a8.74,8.74,0,0,0,5.32,1.56,8.84,8.84,0,0,0,7-3.23,12.29,12.29,0,0,0,2.75-8.25,15.87,15.87,0,0,0-1.26-6.55,9,9,0,0,0-3.56-4.19Zm-1.79,3.16-.29-.17a6.32,6.32,0,0,0-3-.91q-4.49,0-4.49,8.84,0,6.46,2.79,8.56l-.15.17a6.63,6.63,0,0,1-2.44-3.19,15.9,15.9,0,0,1-.73-5.34q0-9.48,5-9.48A3.78,3.78,0,0,1,695.51,415.83Z" transform="translate(-292.65 -221.85)"/><path d="M723.44,412.62l-3.2,6.29a6.84,6.84,0,0,0-1.68-4.1,4.83,4.83,0,0,0-3.63-1.42,5.8,5.8,0,0,0-5,2.5,11.85,11.85,0,0,0-1.79,7q0,9.9,8.1,9.9H719v-8.87h-4.31a9.14,9.14,0,0,1-2-.15,2.76,2.76,0,0,1-1.17-.67v-.43a3.34,3.34,0,0,0,1.23.61,9.7,9.7,0,0,0,2,.15H719v-.92h-5.52q-2.55,0-2.55-1.85a1.86,1.86,0,0,1,.43-1.23,1.29,1.29,0,0,1,1-.51,1.08,1.08,0,0,1,.78.32,1,1,0,0,1,.33.77q0,.75-.55.87l-.41.09q-.21.05-.21.17t.56.22h11.86l-2.36,2.31v8.43l2.19,1.88H714.12a10.36,10.36,0,0,1-3.59-.53,8.86,8.86,0,0,1-2.87-1.88,10.87,10.87,0,0,1-3.43-8.43q0-5.45,3.25-8.51a9.47,9.47,0,0,1,6.73-2.68,15.42,15.42,0,0,1,4,.62,15,15,0,0,0,3,.63A4.93,4.93,0,0,0,723.44,412.62ZM719,416.29l-.31-.22a6.32,6.32,0,0,0-3.55-1.38,4.66,4.66,0,0,0-3.37,1.38,5.9,5.9,0,0,0-1.48,2.68,17.09,17.09,0,0,0-.45,4.38,15.77,15.77,0,0,0,.68,5.28,7.73,7.73,0,0,0,2.51,3.3v.19a6.7,6.7,0,0,1-2.85-3.32,15.82,15.82,0,0,1-.87-5.82,11.14,11.14,0,0,1,1.52-6.3,4.87,4.87,0,0,1,4.27-2.25,4.68,4.68,0,0,1,3.9,2Zm6.49,6-1.76,1.76v8l2.84,3.26-6.78-.05-6.15.07a8.74,8.74,0,0,1-.89,0,4.46,4.46,0,0,1-2.17-.94h.36a8,8,0,0,0,3.18.51l.85,0h10.65l-2.36-2.61v-8.37l2-2Zm-1-8.61-2.92,5.74-.41-.19,2.94-5.76Z" transform="translate(-292.65 -221.85)"/><path d="M746.49,412l-.27.32a17.06,17.06,0,0,0-2.77,4.9l-.26-.58a5.59,5.59,0,0,0-2-2.65,8.71,8.71,0,0,0-3.86-.6q-1.28,0-3.08.09v7.86h1.09v-7q1.3-.12,2.48-.12a8.26,8.26,0,0,1,3.2.46,4.28,4.28,0,0,1,1.83,1.79l-.34-.26a8.27,8.27,0,0,0-2-1.3,9.2,9.2,0,0,0-2.43-.21q-.55,0-1.95.07l-.36,0v6.49h3.14l2.21-3v7.37l-2.21-2.85h-4.67v9.59h1.09v-8.78H739l.44.44h-3.73v8.34a17.27,17.27,0,0,0,5-.5A4.14,4.14,0,0,0,743,430l.91-1.56.21-.38a11.11,11.11,0,0,0,1.1,3,13.58,13.58,0,0,0,2.18,2.63H728.25l2.6-2V424.1a6.3,6.3,0,0,0-2.6.89l-.24-.36a6.09,6.09,0,0,1,2.84-1v-.8l-.41,0a4.66,4.66,0,0,0-3.18,1.28,3.42,3.42,0,0,1,3.59-2.73v-7.3l-2.6-2.05Zm2.87,21.79-.89,1.54H729.81l-.27-.46h18.71l.58-1.08a13.21,13.21,0,0,1-3.47-4.85l.55.21a14,14,0,0,0,3.18,4.38Zm-7.08-14.9v7.55l-.43-.22v-7.55Zm5-5.69-.12.15a20.16,20.16,0,0,0-2.79,4.7l-.29-.36a20.25,20.25,0,0,1,3-4.85Z" transform="translate(-292.65 -221.85)"/><path d="M769.22,412a7,7,0,0,0-2.51,1.85,7.2,7.2,0,0,0-.85,3.91v16.17H763l-8.07-15.65v9.28l0,.77.21,2.46a3.79,3.79,0,0,0,1.55,2.53l.14.12q-2.36-.79-2.36-5l0-1.61v-9.35l-.92-1.79v9.84q0,4.68.62,6.14a4.12,4.12,0,0,0,2.89,2.12l1.49,1.59h-9.26l-.27-.46h8.56l-.89-.94h-8a4.82,4.82,0,0,0,2.77-2,9.84,9.84,0,0,0,.68-4.34V413.91l-2.27-1.9h8.65l-2.43,1.62,8.27,16.13v-2.05l-7.09-13.81,2.39-1.62.33.32-2.12,1.44,6.49,12.75v-8.89a10.56,10.56,0,0,0-.49-4,5,5,0,0,0-2.4-1.92Zm.6,1.26-.31.51a2.59,2.59,0,0,0-1.79,1.14,6,6,0,0,0-.47,2.79v17.62h-3.67l-.22-.46h3.43v-17a6.49,6.49,0,0,1,.62-3.36A3.41,3.41,0,0,1,769.82,413.28Z" transform="translate(-292.65 -221.85)"/><rect class="cls-3" x="855.87" y="404.52" width="190.84" height="23.46" transform="translate(1074.89 -756.9) rotate(90)"/><polygon class="cls-4" points="670.37 284.44 438.52 379.86 426.79 365.38 658.64 269.96 670.37 284.44"/><polygon class="cls-5" points="658.64 118.93 426.79 23.51 438.52 9.03 670.37 104.45 658.64 118.93"/><rect class="cls-6" x="225.31" y="404.47" width="190.84" height="23.46" transform="translate(444.27 -126.39) rotate(90)"/><polygon class="cls-7" points="16.35 284.39 248.2 379.81 259.93 365.33 28.08 269.91 16.35 284.39"/><polygon class="cls-8" points="28.08 118.88 259.93 23.46 248.2 8.98 16.35 104.4 28.08 118.88"/></svg>